<?xml version="1.0" standalone="no"?>
<!DOCTYPE svg PUBLIC "-//W3C//DTD SVG 20010904//EN"
 "http://www.w3.org/TR/2001/REC-SVG-20010904/DTD/svg10.dtd">
<svg version="1.0" xmlns="http://www.w3.org/2000/svg"
 width="300.000000pt" height="294.000000pt" viewBox="0 0 300.000000 294.000000"
 preserveAspectRatio="xMidYMid meet">
<metadata>
Created by potrace 1.10, written by Peter Selinger 2001-2011
</metadata>
<g transform="translate(0.000000,294.000000) scale(0.100000,-0.100000)"
fill="#000000" stroke="none">
<path d="M1500 2787 c-14 -6 -27 -14 -30 -17 -3 -3 -63 -39 -135 -80 -71 -40
-132 -76 -135 -80 -3 -3 -16 -11 -30 -18 -14 -6 -92 -51 -175 -100 l-150 -87
-3 -391 -2 -391 51 -29 c29 -16 73 -41 98 -56 25 -16 55 -32 66 -38 11 -6 34
-18 50 -29 17 -10 113 -66 215 -126 102 -59 190 -111 196 -116 10 -8 117 47
196 102 15 11 32 19 37 19 5 0 16 6 23 13 7 6 29 20 48 30 68 35 95 50 100 56
3 3 20 14 38 24 81 43 97 53 110 65 7 6 17 12 22 12 5 0 36 16 69 36 l61 36
-2 395 -3 395 -60 34 c-33 18 -71 39 -85 47 -14 8 -81 47 -150 87 -68 40 -138
80 -155 90 -16 9 -76 42 -131 73 -56 31 -104 57 -105 56 -2 0 -15 -6 -29 -12z
m154 -89 c346 -192 522 -292 533 -304 10 -10 13 -95 13 -380 l0 -367 -25 -21
c-13 -12 -41 -30 -62 -41 -21 -11 -116 -64 -211 -117 -96 -54 -175 -98 -177
-98 -2 0 -43 -23 -91 -51 -49 -28 -95 -51 -104 -51 -17 -1 -631 358 -642 376
-4 6 -8 174 -8 373 l0 362 43 29 c23 16 63 41 89 55 26 14 129 75 230 135 264
157 272 161 287 162 8 0 64 -28 125 -62z"/>
<path d="M1490 2576 c-38 -20 -100 -55 -145 -80 -38 -22 -165 -94 -247 -139
-79 -43 -76 -32 -81 -321 -3 -145 -1 -273 5 -292 7 -28 23 -42 91 -82 180
-106 397 -222 416 -222 21 0 74 26 123 61 14 11 28 19 31 19 3 0 42 23 87 50
45 28 86 50 91 50 5 0 9 3 9 8 0 4 13 13 29 20 16 7 50 29 75 48 l46 35 -2
287 -3 286 -55 37 c-102 68 -414 249 -430 249 -8 0 -26 -6 -40 -14z m68 -24
c15 -10 85 -52 156 -93 71 -41 145 -84 165 -96 20 -12 55 -32 79 -44 l42 -23
0 -282 0 -282 -92 -53 c-51 -29 -157 -90 -236 -136 l-143 -84 -57 33 c-31 18
-66 38 -77 45 -11 7 -29 16 -41 22 -11 5 -50 27 -85 48 -35 22 -71 43 -79 47
-8 4 -24 12 -35 19 -11 7 -39 23 -63 36 l-42 25 2 280 3 279 135 78 c74 44
142 83 150 89 8 5 24 14 35 19 11 6 49 28 85 50 36 22 67 40 68 41 2 0 16 -8
30 -18z"/>
<path d="M1514 2419 c-3 -6 -21 -18 -38 -26 -17 -7 -91 -49 -164 -92 l-134
-78 0 -206 c0 -113 3 -210 6 -215 3 -5 20 -17 38 -27 18 -9 42 -22 53 -28 11
-7 73 -43 137 -80 l117 -68 33 17 c18 9 35 20 38 23 5 6 49 31 105 59 17 9 32
18 35 21 5 6 51 32 113 64 l37 19 0 209 0 208 -47 28 c-26 15 -57 33 -68 40
-11 7 -27 15 -35 19 -43 21 -191 108 -196 115 -7 12 -21 11 -30 -2z m181 -114
c92 -48 162 -91 165 -102 11 -30 11 -362 1 -382 -6 -10 -43 -35 -83 -56 -40
-21 -108 -58 -150 -82 -43 -23 -85 -43 -95 -43 -18 0 -302 166 -315 185 -5 5
-7 93 -5 195 l2 184 154 93 c85 51 157 93 160 93 3 -1 78 -39 166 -85z"/>
<path d="M1461 2187 c-100 -52 -111 -66 -112 -151 -1 -39 -2 -78 -3 -86 -2
-28 26 -60 80 -91 85 -48 105 -51 161 -22 26 14 63 36 81 50 l32 24 0 98 c0
88 -2 100 -22 119 -23 21 -137 92 -147 92 -3 0 -35 -15 -70 -33z m131 -30 c30
-19 62 -37 71 -40 14 -5 17 -22 17 -99 l0 -93 -33 -21 c-66 -43 -105 -64 -118
-63 -8 0 -43 17 -79 37 l-65 38 -5 94 -5 95 70 41 c39 23 75 42 81 43 5 1 35
-14 66 -32z"/>
<path d="M310 1067 c0 -14 7 -28 16 -31 9 -3 100 -6 204 -6 222 0 245 -7 331
-97 78 -82 112 -169 106 -272 -2 -42 -10 -89 -17 -106 -7 -16 -14 -33 -14 -37
-3 -21 -85 -113 -139 -155 -42 -33 -102 -43 -269 -43 l-168 0 0 326 0 327 163
-7 c149 -6 166 -9 217 -34 135 -68 191 -267 111 -394 -66 -104 -127 -138 -246
-138 l-85 0 0 225 0 225 -25 0 -25 0 0 -250 0 -250 110 0 c102 0 115 2 168 29
57 29 102 70 137 126 106 167 39 387 -144 477 -42 21 -63 23 -238 26 l-193 4
0 -372 0 -372 213 4 c193 3 216 6 252 25 170 90 265 271 235 446 -24 135 -116
258 -237 314 -56 27 -65 28 -260 31 l-203 3 0 -24z"/>
<path d="M1400 1071 c-129 -36 -198 -92 -259 -211 -23 -44 -41 -81 -40 -82 0
-2 -2 -28 -6 -59 -14 -115 33 -239 126 -330 85 -84 152 -113 267 -116 103 -3
156 12 245 69 l47 30 0 169 0 169 -150 0 -150 0 0 -24 0 -25 125 2 125 2 0
-86 c0 -47 3 -106 6 -130 6 -43 5 -45 -38 -72 -64 -42 -170 -71 -226 -63 -194
26 -334 181 -331 364 2 139 78 257 205 322 43 22 62 25 154 25 118 0 175 -19
229 -75 28 -30 28 -30 46 -10 17 19 17 21 1 39 -43 47 -207 112 -281 110 -16
0 -59 -8 -95 -18z"/>
<path d="M1850 1085 c0 -3 38 -82 84 -177 46 -95 111 -231 146 -303 163 -343
178 -367 199 -312 8 20 99 208 280 579 39 80 71 151 71 157 0 6 9 11 20 11 11
0 20 -2 20 -3 0 -2 -13 -30 -29 -63 -16 -32 -66 -135 -111 -229 -45 -93 -94
-195 -110 -225 -16 -30 -49 -99 -74 -152 l-45 -98 27 0 c29 0 20 -17 265 490
38 80 89 185 113 233 24 48 44 90 44 92 0 3 -33 5 -74 5 -69 0 -75 -2 -81 -22
-4 -13 -44 -99 -90 -193 -149 -306 -226 -465 -236 -493 -10 -25 -18 -12 -121
198 -62 124 -113 230 -114 236 -1 7 -27 60 -57 118 l-55 106 64 0 63 0 62
-127 c34 -71 79 -166 101 -213 37 -79 40 -84 54 -66 20 28 18 40 -20 115 -19
36 -64 128 -100 204 l-65 137 -115 0 c-64 0 -116 -2 -116 -5z"/>
<path d="M2442 928 c-43 -90 -103 -214 -132 -276 l-54 -113 -102 208 c-55 114
-104 218 -108 231 -5 16 -15 22 -36 22 l-29 0 15 -37 c9 -21 29 -63 44 -93 52
-100 200 -412 200 -420 0 -5 5 -12 10 -15 6 -4 26 27 47 72 31 69 184 385 249
516 30 61 30 67 -1 67 -22 0 -33 -17 -103 -162z"/>
<path d="M1370 978 c-207 -96 -262 -357 -111 -521 46 -50 125 -93 196 -106 66
-13 166 10 218 51 l37 30 0 99 0 99 -115 0 -115 0 0 -60 0 -60 51 0 c72 0 61
-24 -14 -28 -98 -6 -175 45 -206 137 -25 76 3 159 73 215 35 29 44 31 115 31
70 0 81 -3 116 -29 l38 -29 45 48 c44 46 45 48 26 62 -10 7 -27 20 -37 29 -66
55 -231 72 -317 32z m222 -38 c77 -29 85 -35 69 -54 -12 -15 -17 -14 -50 6
-29 19 -51 23 -112 23 -67 0 -81 -4 -124 -30 -27 -17 -63 -50 -80 -74 -26 -37
-30 -53 -33 -121 -4 -71 -1 -84 24 -130 58 -108 186 -157 294 -114 38 15 40
18 40 60 l0 43 -47 3 c-26 2 -48 9 -51 16 -3 9 14 12 62 12 l66 0 0 -70 c0
-64 -2 -71 -27 -87 -29 -19 -139 -30 -196 -19 -73 14 -177 110 -194 179 -40
168 30 306 179 358 69 24 115 24 180 -1z"/>
<path d="M392 639 c3 -271 4 -294 21 -297 16 -3 17 15 17 267 l0 271 117 0
c148 0 189 -16 233 -94 41 -70 46 -105 24 -166 -34 -95 -112 -150 -213 -150
-34 0 -41 -3 -41 -20 0 -18 7 -20 65 -20 76 0 124 20 170 72 57 62 70 96 69
178 0 86 -21 136 -76 185 -63 57 -72 60 -236 63 l-152 4 2 -293z"/>
</g>
</svg>
